<svg xmlns="http://www.w3.org/2000/svg" viewBox="0 0 512 512">
  <rect width="512" height="512" rx="104" fill="#121A25"/>
  <g transform="translate(256,256) scale(4.6) translate(-250,-141)">
    <path fill="#F4F1EA" d="M222.0 143.5 L225.6 146.1 L225.6 128.6 L259.6 128.6 C261.5 128.6 263.0 128.2 264.0 127.4 C265.0 126.5 265.6 125.4 265.6 124.1 C265.6 122.7 265.0 121.6 264.0 120.8 C263.0 120.0 261.5 119.6 259.6 119.6 L225.6 119.6 L222.0 124.1 Z"/>
    <path fill="#9AA0A7" d="M272.7 134.7 C271.1 135.9 269.0 136.9 266.6 137.6 C264.2 138.3 261.5 138.7 258.4 138.7 L237.8 138.7 L237.8 154.7 L249.7 163.2 L277.3 143.5 L277.3 128.1 C277.1 128.8 276.9 129.5 276.5 130.1 C275.7 131.9 274.4 133.4 272.7 134.7 Z"/>
  </g>
</svg>
