<svg xmlns="http://www.w3.org/2000/svg" viewBox="0 0 1280 853" font-family="'Cormorant Garamond', Georgia, serif">
  <rect width="1280" height="853" fill="#F4F1EA"/>
  <!-- furniture + label styles -->
  <g fill="none" stroke="#121A25">
    <!-- outer wall -->
    <rect x="70" y="70" width="1140" height="713" stroke-width="11"/>
    <!-- interior dividers -->
    <g stroke-width="5">
      <line x1="475" y1="70" x2="475" y2="783"/>
      <line x1="835" y1="70" x2="835" y2="783"/>
      <line x1="70" y1="395" x2="475" y2="395"/>
      <line x1="70" y1="555" x2="475" y2="555"/>
      <line x1="475" y1="500" x2="835" y2="500"/>
      <line x1="835" y1="320" x2="1210" y2="320"/>
      <line x1="835" y1="560" x2="1210" y2="560"/>
    </g>
  </g>
  <!-- door gaps (cover wall) + swing arcs -->
  <g>
    <g fill="#F4F1EA">
      <rect x="455" y="200" width="25" height="70"/>
      <rect x="455" y="610" width="25" height="70"/>
      <rect x="815" y="180" width="25" height="70"/>
      <rect x="815" y="380" width="25" height="70"/>
      <rect x="815" y="630" width="25" height="70"/>
      <rect x="250" y="378" width="70" height="22"/>
      <rect x="250" y="538" width="70" height="22"/>
      <rect x="610" y="483" width="70" height="22"/>
      <rect x="980" y="303" width="70" height="22"/>
      <rect x="980" y="543" width="70" height="22"/>
    </g>
    <g fill="none" stroke="#9AA0A7" stroke-width="2">
      <path d="M480 200 A70 70 0 0 1 480 270"/>
      <path d="M480 610 A70 70 0 0 1 480 680"/>
      <path d="M285 400 A70 70 0 0 1 355 400" transform="rotate(180 285 400)"/>
    </g>
  </g>
  <!-- windows on outer wall (double marks) -->
  <g stroke="#9AA0A7" stroke-width="3">
    <line x1="160" y1="70" x2="300" y2="70"/><line x1="160" y1="78" x2="300" y2="78"/>
    <line x1="980" y1="70" x2="1120" y2="70"/><line x1="980" y1="78" x2="1120" y2="78"/>
    <line x1="70" y1="170" x2="70" y2="300"/><line x1="78" y1="170" x2="78" y2="300"/>
    <line x1="1210" y1="630" x2="1210" y2="740"/><line x1="1202" y1="630" x2="1202" y2="740"/>
    <line x1="430" y1="783" x2="560" y2="783"/><line x1="430" y1="775" x2="560" y2="775"/>
  </g>
  <!-- furniture (muted) -->
  <g fill="none" stroke="#B9A98C" stroke-width="3">
    <!-- primary bed -->
    <rect x="150" y="150" width="180" height="150" rx="6"/>
    <line x1="150" y1="195" x2="330" y2="195"/>
    <rect x="165" y="160" width="55" height="28" rx="4"/><rect x="258" y="160" width="55" height="28" rx="4"/>
    <!-- great room sofa + rug -->
    <rect x="560" y="120" width="190" height="60" rx="10"/>
    <rect x="560" y="120" width="190" height="22"/>
    <rect x="545" y="230" width="220" height="120" rx="6"/>
    <!-- dining table + chairs -->
    <rect x="950" y="380" width="160" height="90" rx="8"/>
    <circle cx="935" cy="400" r="11"/><circle cx="935" cy="450" r="11"/>
    <circle cx="1125" cy="400" r="11"/><circle cx="1125" cy="450" r="11"/>
    <!-- bedroom 2 bed -->
    <rect x="150" y="615" width="150" height="120" rx="6"/><line x1="150" y1="650" x2="300" y2="650"/>
    <!-- bedroom 3 bed -->
    <rect x="900" y="610" width="150" height="120" rx="6"/><line x1="900" y1="645" x2="1050" y2="645"/>
    <!-- kitchen counters / island -->
    <path d="M855 95 H1150 V140 H900 V250 H855 Z"/>
    <rect x="940" y="180" width="150" height="55" rx="4"/>
  </g>
  <!-- room labels -->
  <g fill="#121A25" text-anchor="middle">
    <g font-size="30" letter-spacing="1">
      <text x="272" y="345">Primary Suite</text>
      <text x="272" y="487">Bath</text>
      <text x="272" y="690">Bedroom 2</text>
      <text x="655" y="300">Great Room</text>
      <text x="655" y="650">Foyer</text>
      <text x="1022" y="210">Kitchen</text>
      <text x="1022" y="445">Dining</text>
      <text x="1022" y="690">Bedroom 3</text>
    </g>
    <g font-family="'Lato', Arial, sans-serif" font-size="13" letter-spacing="3" fill="#8A8576">
      <text x="272" y="368">16'-2" × 14'-0"</text>
      <text x="655" y="324">22'-0" × 18'-0"</text>
      <text x="1022" y="234">15'-0" × 12'-0"</text>
      <text x="1022" y="469">14'-0" × 12'-0"</text>
    </g>
  </g>
  <!-- title block -->
  <g>
    <line x1="70" y1="812" x2="1210" y2="812" stroke="#C9C3B5" stroke-width="2"/>
    <text x="70" y="838" font-size="20" letter-spacing="2" fill="#121A25">FIRST FLOOR · 2,480 SQ FT</text>
    <text x="1210" y="838" text-anchor="end" font-family="'Lato', Arial, sans-serif" font-size="13" letter-spacing="3" fill="#8A8576">PORTA PRODUCTIONS · 2D FLOOR PLAN</text>
  </g>
</svg>
